<svg fill="none" height="16" viewBox="0 0 16 16" width="16" xmlns="http://www.w3.org/2000/svg"><g fill="#212121"><path d="m8.99949 9.7066 5.14691 5.147c.1953.1952.5119.1952.7072 0 .1952-.1953.1952-.5119 0-.7072l-13.00005-12.99995c-.19526-.195266-.51184-.195266-.7071 0-.195266.19526-.195266.51184 0 .7071l3.13916 3.13917h-.7861c-.82843 0-1.5.67157-1.5 1.5v2.98899c0 .82839.67157 1.49999 1.5 1.49999h1.72314l2.92644 2.875c.14368.1411.35804.1823.54379.1044.18574-.0779.30661-.2597.30661-.4611z"/><path d="m11.7089 9.58768-.7949-.79488c.055-.23215.0898-.49649.0898-.79426 0-.74749-.2188-1.28334-.4281-1.62765-.1055-.17346-.2095-.29969-.2838-.37985-.0371-.04001-.0665-.06828-.0847-.08493-.0091-.00832-.0153-.0137-.0182-.01617l.001.00076c-.21573-.17199-.25105-.486-.0792-.70197.1719-.2161.4864-.25193.7025-.08001l.0009.00067.0009.00075.0022.00173.0053.00439.015.01254c.0118.01003.0271.02343.0454.04023.0366.03357.0854.08086.1422.14214.1135.12243.26.30178.405.54024.2915.47954.5736 1.19296.5736 2.14713 0 .6356-.1252 1.16472-.2949 1.58914z"/><path d="m13.2258 11.1046-.7445-.7446c.2947-.62819.5215-1.41645.5215-2.35597 0-1.33557-.4583-2.36762-.9188-3.06895-.2304-.35098-.4602-.61717-.6303-.79377-.0849-.08815-.1544-.15351-.2011-.1955-.0233-.02098-.0408-.03608-.0516-.04522l-.0111-.00922c-.2157-.17206-.2519-.48688-.0799-.7028.172-.21604.4865-.25173.7026-.07972l.0017.00138.0024.00198.0071.00575.0224.01868c.0185.01562.044.03761.0754.06589.0628.05654.1497.13842.2525.24516.2052.21318.4758.52732.7458.93856.5404.82311 1.0829 2.04308 1.0829 3.61778 0 1.27404-.3551 2.31467-.777 3.10057z"/><path d="m8.99949 6.87826-2.81817-2.81817 1.96929-1.91825c.144-.14028.35802-.18067.54325-.10252.18522.07816.30563.25964.30563.46068z"/></g></svg>